# This file uses centimeters as units for non-parametric coordinates.

mtllib Tree.mtl
g default
v 0.951057 0.047428 -0.309017
v 0.809018 0.047428 -0.587786
v 0.587786 0.047428 -0.809017
v 0.309017 0.047428 -0.951057
v 0.000000 0.047428 -1.000000
v -0.309017 0.047428 -0.951057
v -0.587785 0.047428 -0.809017
v -0.809017 0.047428 -0.587785
v -0.951057 0.047428 -0.309017
v -1.000000 0.047428 0.000000
v -0.951057 0.047428 0.309017
v -0.809017 0.047428 0.587785
v -0.587785 0.047428 0.809017
v -0.309017 0.047428 0.951057
v -0.000000 0.047428 1.000000
v 0.309017 0.047428 0.951057
v 0.587785 0.047428 0.809017
v 0.809017 0.047428 0.587785
v 0.951057 0.047428 0.309017
v 1.000000 0.047428 0.000000
v 0.951057 3.781024 -0.309017
v 0.809018 3.781024 -0.587786
v 0.587786 3.781024 -0.809017
v 0.309017 3.781024 -0.951057
v 0.000000 3.781024 -1.000000
v -0.309017 3.781024 -0.951057
v -0.587785 3.781024 -0.809017
v -0.809017 3.781024 -0.587785
v -0.951057 3.781024 -0.309017
v -1.000000 3.781024 0.000000
v -0.951057 3.781024 0.309017
v -0.809017 3.781024 0.587785
v -0.587785 3.781024 0.809017
v -0.309017 3.781024 0.951057
v -0.000000 3.781024 1.000000
v 0.309017 3.781024 0.951057
v 0.587785 3.781024 0.809017
v 0.809017 3.781024 0.587785
v 0.951057 3.781024 0.309017
v 1.000000 3.781024 0.000000
v 0.000000 0.047428 0.000000
v 0.000000 3.781024 0.000000
vt 0.648603 0.107966
vt 0.626409 0.064408
vt 0.591842 0.029841
vt 0.548284 0.007647
vt 0.500000 -0.000000
vt 0.451716 0.007647
vt 0.408159 0.029841
vt 0.373591 0.064409
vt 0.351397 0.107966
vt 0.343750 0.156250
vt 0.351397 0.204534
vt 0.373591 0.248091
vt 0.408159 0.282659
vt 0.451716 0.304853
vt 0.500000 0.312500
vt 0.548284 0.304853
vt 0.591841 0.282659
vt 0.626409 0.248091
vt 0.648603 0.204534
vt 0.656250 0.156250
vt 0.375000 0.312500
vt 0.387500 0.312500
vt 0.400000 0.312500
vt 0.412500 0.312500
vt 0.425000 0.312500
vt 0.437500 0.312500
vt 0.450000 0.312500
vt 0.462500 0.312500
vt 0.475000 0.312500
vt 0.487500 0.312500
vt 0.500000 0.312500
vt 0.512500 0.312500
vt 0.525000 0.312500
vt 0.537500 0.312500
vt 0.550000 0.312500
vt 0.562500 0.312500
vt 0.575000 0.312500
vt 0.587500 0.312500
vt 0.600000 0.312500
vt 0.612500 0.312500
vt 0.625000 0.312500
vt 0.375000 0.687500
vt 0.387500 0.687500
vt 0.400000 0.687500
vt 0.412500 0.687500
vt 0.425000 0.687500
vt 0.437500 0.687500
vt 0.450000 0.687500
vt 0.462500 0.687500
vt 0.475000 0.687500
vt 0.487500 0.687500
vt 0.500000 0.687500
vt 0.512500 0.687500
vt 0.525000 0.687500
vt 0.537500 0.687500
vt 0.550000 0.687500
vt 0.562500 0.687500
vt 0.575000 0.687500
vt 0.587500 0.687500
vt 0.600000 0.687500
vt 0.612500 0.687500
vt 0.625000 0.687500
vt 0.648603 0.795466
vt 0.626409 0.751908
vt 0.591842 0.717341
vt 0.548284 0.695147
vt 0.500000 0.687500
vt 0.451716 0.695147
vt 0.408159 0.717341
vt 0.373591 0.751909
vt 0.351397 0.795466
vt 0.343750 0.843750
vt 0.351397 0.892034
vt 0.373591 0.935591
vt 0.408159 0.970159
vt 0.451716 0.992353
vt 0.500000 1.000000
vt 0.548284 0.992353
vt 0.591841 0.970159
vt 0.626409 0.935591
vt 0.648603 0.892034
vt 0.656250 0.843750
vt 0.500000 0.156250
vt 0.500000 0.843750
vn 0.951057 0.000000 -0.309016
vn 0.809017 0.000000 -0.587785
vn 0.809017 0.000000 -0.587785
vn 0.951057 0.000000 -0.309016
vn 0.587785 0.000000 -0.809017
vn 0.587785 0.000000 -0.809017
vn 0.309017 0.000000 -0.951057
vn 0.309017 0.000000 -0.951057
vn -0.000000 0.000000 -1.000000
vn -0.000000 0.000000 -1.000000
vn -0.309017 0.000000 -0.951056
vn -0.309017 0.000000 -0.951056
vn -0.587785 0.000000 -0.809017
vn -0.587785 0.000000 -0.809017
vn -0.809017 0.000000 -0.587785
vn -0.809017 0.000000 -0.587785
vn -0.951057 0.000000 -0.309017
vn -0.951057 0.000000 -0.309017
vn -1.000000 0.000000 0.000000
vn -1.000000 0.000000 0.000000
vn -0.951057 0.000000 0.309017
vn -0.951057 0.000000 0.309017
vn -0.809017 0.000000 0.587785
vn -0.809017 0.000000 0.587785
vn -0.587785 0.000000 0.809017
vn -0.587785 0.000000 0.809017
vn -0.309017 0.000000 0.951057
vn -0.309017 0.000000 0.951057
vn 0.000000 0.000000 1.000000
vn 0.000000 0.000000 1.000000
vn 0.309017 0.000000 0.951057
vn 0.309017 0.000000 0.951057
vn 0.587785 0.000000 0.809017
vn 0.587785 0.000000 0.809017
vn 0.809017 0.000000 0.587785
vn 0.809017 0.000000 0.587785
vn 0.951057 0.000000 0.309017
vn 0.951057 0.000000 0.309017
vn 1.000000 0.000000 0.000001
vn 1.000000 0.000000 0.000001
vn 0.000000 -1.000000 0.000000
vn 0.000000 -1.000000 0.000000
vn 0.000000 -1.000000 0.000000
vn 0.000000 -1.000000 0.000000
vn 0.000000 -1.000000 0.000000
vn 0.000000 -1.000000 0.000000
vn 0.000000 -1.000000 0.000000
vn 0.000000 -1.000000 0.000000
vn 0.000000 -1.000000 0.000000
vn 0.000000 -1.000000 0.000000
vn 0.000000 -1.000000 0.000000
vn 0.000000 -1.000000 0.000000
vn 0.000000 -1.000000 0.000000
vn 0.000000 -1.000000 0.000000
vn 0.000000 -1.000000 0.000000
vn 0.000000 -1.000000 0.000000
vn 0.000000 -1.000000 0.000000
vn 0.000000 -1.000000 0.000000
vn 0.000000 -1.000000 0.000000
vn 0.000000 -1.000000 0.000000
vn 0.000000 -1.000000 0.000000
vn 0.000000 1.000000 0.000000
vn 0.000000 1.000000 0.000000
vn 0.000000 1.000000 0.000000
vn 0.000000 1.000000 0.000000
vn 0.000000 1.000000 0.000000
vn 0.000000 1.000000 0.000000
vn 0.000000 1.000000 0.000000
vn 0.000000 1.000000 0.000000
vn 0.000000 1.000000 0.000000
vn 0.000000 1.000000 0.000000
vn 0.000000 1.000000 0.000000
vn 0.000000 1.000000 0.000000
vn 0.000000 1.000000 0.000000
vn 0.000000 1.000000 0.000000
vn 0.000000 1.000000 0.000000
vn 0.000000 1.000000 0.000000
vn 0.000000 1.000000 0.000000
vn 0.000000 1.000000 0.000000
vn 0.000000 1.000000 0.000000
vn 0.000000 1.000000 0.000000
vn 0.000000 1.000000 0.000000
s 1
g pCylinder1
usemtl blinn1SG
f 1/21/1 2/22/2 22/43/3 21/42/4
f 2/22/2 3/23/5 23/44/6 22/43/3
f 3/23/5 4/24/7 24/45/8 23/44/6
f 4/24/7 5/25/9 25/46/10 24/45/8
f 5/25/9 6/26/11 26/47/12 25/46/10
f 6/26/11 7/27/13 27/48/14 26/47/12
f 7/27/13 8/28/15 28/49/16 27/48/14
f 8/28/15 9/29/17 29/50/18 28/49/16
f 9/29/17 10/30/19 30/51/20 29/50/18
f 10/30/19 11/31/21 31/52/22 30/51/20
f 11/31/21 12/32/23 32/53/24 31/52/22
f 12/32/23 13/33/25 33/54/26 32/53/24
f 13/33/25 14/34/27 34/55/28 33/54/26
f 14/34/27 15/35/29 35/56/30 34/55/28
f 15/35/29 16/36/31 36/57/32 35/56/30
f 16/36/31 17/37/33 37/58/34 36/57/32
f 17/37/33 18/38/35 38/59/36 37/58/34
f 18/38/35 19/39/37 39/60/38 38/59/36
f 19/39/37 20/40/39 40/61/40 39/60/38
f 20/40/39 1/41/1 21/62/4 40/61/40
s 2
f 2/2/41 1/1/42 41/83/43
f 3/3/44 2/2/41 41/83/43
f 4/4/45 3/3/44 41/83/43
f 5/5/46 4/4/45 41/83/43
f 6/6/47 5/5/46 41/83/43
f 7/7/48 6/6/47 41/83/43
f 8/8/49 7/7/48 41/83/43
f 9/9/50 8/8/49 41/83/43
f 10/10/51 9/9/50 41/83/43
f 11/11/52 10/10/51 41/83/43
f 12/12/53 11/11/52 41/83/43
f 13/13/54 12/12/53 41/83/43
f 14/14/55 13/13/54 41/83/43
f 15/15/56 14/14/55 41/83/43
f 16/16/57 15/15/56 41/83/43
f 17/17/58 16/16/57 41/83/43
f 18/18/59 17/17/58 41/83/43
f 19/19/60 18/18/59 41/83/43
f 20/20/61 19/19/60 41/83/43
f 1/1/42 20/20/61 41/83/43
s 3
f 21/81/62 22/80/63 42/84/64
f 22/80/63 23/79/65 42/84/64
f 23/79/65 24/78/66 42/84/64
f 24/78/66 25/77/67 42/84/64
f 25/77/67 26/76/68 42/84/64
f 26/76/68 27/75/69 42/84/64
f 27/75/69 28/74/70 42/84/64
f 28/74/70 29/73/71 42/84/64
f 29/73/71 30/72/72 42/84/64
f 30/72/72 31/71/73 42/84/64
f 31/71/73 32/70/74 42/84/64
f 32/70/74 33/69/75 42/84/64
f 33/69/75 34/68/76 42/84/64
f 34/68/76 35/67/77 42/84/64
f 35/67/77 36/66/78 42/84/64
f 36/66/78 37/65/79 42/84/64
f 37/65/79 38/64/80 42/84/64
f 38/64/80 39/63/81 42/84/64
f 39/63/81 40/82/82 42/84/64
f 40/82/82 21/81/62 42/84/64
g default
v 2.000495 1.880596 -0.650000
v 1.701723 1.880596 -1.236374
v 1.236374 1.880596 -1.701722
v 0.650000 1.880596 -2.000495
v 0.000000 1.880596 -2.103444
v -0.650000 1.880596 -2.000494
v -1.236373 1.880596 -1.701722
v -1.701722 1.880596 -1.236373
v -2.000494 1.880596 -0.650000
v -2.103444 1.880596 0.000000
v -2.000494 1.880596 0.650000
v -1.701722 1.880596 1.236373
v -1.236373 1.880596 1.701722
v -0.650000 1.880596 2.000494
v -0.000000 1.880596 2.103444
v 0.650000 1.880596 2.000494
v 1.236373 1.880596 1.701722
v 1.701721 1.880596 1.236373
v 2.000494 1.880596 0.650000
v 2.103443 1.880596 0.000000
v 0.000000 6.087483 0.000000
vt 0.712178 0.001811
vt 0.775008 0.001811
vt 0.642531 0.452580
vt 0.824871 0.001811
vt 0.642531 0.001811
vt 0.572883 0.001811
vt 0.510053 0.001811
vt 0.460191 0.001811
vt 0.412100 0.456572
vt 0.474930 0.456572
vt 0.544577 0.907340
vt 0.544577 0.456572
vt 0.362237 0.456572
vt 0.614225 0.456572
vt 0.677055 0.456572
vt 0.726917 0.456572
vt 0.441730 0.157548
vt 0.452761 0.227196
vt 0.441730 0.296843
vt 0.409716 0.359673
vt 0.359854 0.409535
vt 0.297024 0.441549
vt 0.227377 0.452580
vt 0.157729 0.441549
vt 0.094899 0.409535
vt 0.045037 0.359673
vt 0.013023 0.296843
vt 0.001992 0.227196
vt 0.013023 0.157548
vt 0.045037 0.094718
vt 0.094899 0.044856
vt 0.157729 0.012842
vt 0.227377 0.001811
vt 0.297024 0.012842
vt 0.359854 0.044856
vt 0.409717 0.094718
vt 0.998008 0.907340
vt 0.935178 0.907340
vt 0.865530 0.456571
vt 0.865530 0.907340
vt 0.795883 0.907340
vt 0.733052 0.907340
vt 0.091147 0.456572
vt 0.153977 0.456572
vt 0.223624 0.907340
vt 0.223624 0.456572
vt 0.293272 0.456572
vt 0.356102 0.456572
vn 0.000000 -1.000000 -0.000000
vn 0.000000 -1.000000 -0.000000
vn 0.000000 -1.000000 -0.000000
vn 0.000000 -1.000000 -0.000000
vn 0.000000 -1.000000 -0.000000
vn 0.000000 -1.000000 -0.000000
vn 0.000000 -1.000000 -0.000000
vn 0.000000 -1.000000 -0.000000
vn 0.000000 -1.000000 -0.000000
vn 0.000000 -1.000000 -0.000000
vn 0.000000 -1.000000 -0.000000
vn 0.000000 -1.000000 -0.000000
vn 0.000000 -1.000000 -0.000000
vn 0.000000 -1.000000 -0.000000
vn 0.000000 -1.000000 -0.000000
vn 0.000000 -1.000000 -0.000000
vn 0.000000 -1.000000 -0.000000
vn 0.000000 -1.000000 -0.000000
vn 0.000000 -1.000000 -0.000000
vn 0.000000 -1.000000 -0.000000
vn 0.850651 0.447214 -0.276392
vn 0.723607 0.447214 -0.525731
vn -0.000000 1.000000 -0.000001
vn 0.525731 0.447214 -0.723607
vn 0.276393 0.447214 -0.850651
vn -0.000000 0.447214 -0.894427
vn -0.276393 0.447214 -0.850651
vn -0.525731 0.447214 -0.723607
vn -0.723607 0.447214 -0.525731
vn -0.850651 0.447214 -0.276393
vn -0.894427 0.447214 0.000000
vn -0.850651 0.447214 0.276393
vn -0.723607 0.447214 0.525731
vn -0.525731 0.447214 0.723607
vn -0.276393 0.447214 0.850651
vn 0.000000 0.447214 0.894427
vn 0.276393 0.447214 0.850651
vn 0.525731 0.447214 0.723607
vn 0.723607 0.447214 0.525731
vn 0.850651 0.447214 0.276393
vn 0.894427 0.447214 0.000001
s off
g pCone1
usemtl initialShadingGroup
f 43/101/83 62/102/84 61/103/85 60/104/86 59/105/87 58/106/88 57/107/89 56/108/90 55/109/91 54/110/92 53/111/93 52/112/94 51/113/95 50/114/96 49/115/97 48/116/98 47/117/99 46/118/100 45/119/101 44/120/102
s 1
f 43/85/103 44/86/104 63/87/105
f 44/86/104 45/88/106 63/87/105
f 45/121/106 46/122/107 63/123/105
f 46/122/107 47/124/108 63/123/105
f 47/124/108 48/125/109 63/123/105
f 48/125/109 49/126/110 63/123/105
f 49/97/110 50/93/111 63/95/105
f 50/93/111 51/94/112 63/95/105
f 51/94/112 52/96/113 63/95/105
f 52/96/113 53/98/114 63/95/105
f 53/98/114 54/99/115 63/95/105
f 54/99/115 55/100/116 63/95/105
f 55/127/116 56/128/117 63/129/105
f 56/128/117 57/130/118 63/129/105
f 57/130/118 58/131/119 63/129/105
f 58/131/119 59/132/120 63/129/105
f 59/92/120 60/91/121 63/87/105
f 60/91/121 61/90/122 63/87/105
f 61/90/122 62/89/123 63/87/105
f 62/89/123 43/85/103 63/87/105
g default
v 2.000495 3.128362 -0.650000
v 1.701723 3.128362 -1.236374
v 1.236374 3.128362 -1.701722
v 0.650000 3.128362 -2.000495
v 0.000000 3.128362 -2.103444
v -0.650000 3.128362 -2.000494
v -1.236373 3.128362 -1.701722
v -1.701722 3.128362 -1.236373
v -2.000494 3.128362 -0.650000
v -2.103444 3.128362 0.000000
v -2.000494 3.128362 0.650000
v -1.701722 3.128362 1.236373
v -1.236373 3.128362 1.701722
v -0.650000 3.128362 2.000494
v -0.000000 3.128362 2.103444
v 0.650000 3.128362 2.000494
v 1.236373 3.128362 1.701722
v 1.701721 3.128362 1.236373
v 2.000494 3.128362 0.650000
v 2.103443 3.128362 0.000000
v 0.000000 7.335248 0.000000
vt 0.712178 0.001811
vt 0.775008 0.001811
vt 0.642531 0.452580
vt 0.824871 0.001811
vt 0.642531 0.001811
vt 0.572883 0.001811
vt 0.510053 0.001811
vt 0.460191 0.001811
vt 0.412100 0.456572
vt 0.474930 0.456572
vt 0.544577 0.907340
vt 0.544577 0.456572
vt 0.362237 0.456572
vt 0.614225 0.456572
vt 0.677055 0.456572
vt 0.726917 0.456572
vt 0.441730 0.157548
vt 0.452761 0.227196
vt 0.441730 0.296843
vt 0.409716 0.359673
vt 0.359854 0.409535
vt 0.297024 0.441549
vt 0.227377 0.452580
vt 0.157729 0.441549
vt 0.094899 0.409535
vt 0.045037 0.359673
vt 0.013023 0.296843
vt 0.001992 0.227196
vt 0.013023 0.157548
vt 0.045037 0.094718
vt 0.094899 0.044856
vt 0.157729 0.012842
vt 0.227377 0.001811
vt 0.297024 0.012842
vt 0.359854 0.044856
vt 0.409717 0.094718
vt 0.998008 0.907340
vt 0.935178 0.907340
vt 0.865530 0.456571
vt 0.865530 0.907340
vt 0.795883 0.907340
vt 0.733052 0.907340
vt 0.091147 0.456572
vt 0.153977 0.456572
vt 0.223624 0.907340
vt 0.223624 0.456572
vt 0.293272 0.456572
vt 0.356102 0.456572
vn 0.000000 -1.000000 -0.000000
vn 0.000000 -1.000000 -0.000000
vn 0.000000 -1.000000 -0.000000
vn 0.000000 -1.000000 -0.000000
vn 0.000000 -1.000000 -0.000000
vn 0.000000 -1.000000 -0.000000
vn 0.000000 -1.000000 -0.000000
vn 0.000000 -1.000000 -0.000000
vn 0.000000 -1.000000 -0.000000
vn 0.000000 -1.000000 -0.000000
vn 0.000000 -1.000000 -0.000000
vn 0.000000 -1.000000 -0.000000
vn 0.000000 -1.000000 -0.000000
vn 0.000000 -1.000000 -0.000000
vn 0.000000 -1.000000 -0.000000
vn 0.000000 -1.000000 -0.000000
vn 0.000000 -1.000000 -0.000000
vn 0.000000 -1.000000 -0.000000
vn 0.000000 -1.000000 -0.000000
vn 0.000000 -1.000000 -0.000000
vn 0.850651 0.447214 -0.276392
vn 0.723607 0.447214 -0.525731
vn -0.000000 1.000000 -0.000001
vn 0.525731 0.447214 -0.723607
vn 0.276393 0.447214 -0.850651
vn -0.000000 0.447214 -0.894427
vn -0.276393 0.447214 -0.850651
vn -0.525731 0.447214 -0.723607
vn -0.723607 0.447214 -0.525731
vn -0.850651 0.447214 -0.276393
vn -0.894427 0.447214 0.000000
vn -0.850651 0.447214 0.276393
vn -0.723607 0.447214 0.525731
vn -0.525731 0.447214 0.723607
vn -0.276393 0.447214 0.850651
vn 0.000000 0.447214 0.894427
vn 0.276393 0.447214 0.850651
vn 0.525731 0.447214 0.723607
vn 0.723607 0.447214 0.525731
vn 0.850651 0.447214 0.276393
vn 0.894427 0.447214 0.000001
s off
g pCone2
usemtl initialShadingGroup
f 64/149/124 83/150/125 82/151/126 81/152/127 80/153/128 79/154/129 78/155/130 77/156/131 76/157/132 75/158/133 74/159/134 73/160/135 72/161/136 71/162/137 70/163/138 69/164/139 68/165/140 67/166/141 66/167/142 65/168/143
s 1
f 64/133/144 65/134/145 84/135/146
f 65/134/145 66/136/147 84/135/146
f 66/169/147 67/170/148 84/171/146
f 67/170/148 68/172/149 84/171/146
f 68/172/149 69/173/150 84/171/146
f 69/173/150 70/174/151 84/171/146
f 70/145/151 71/141/152 84/143/146
f 71/141/152 72/142/153 84/143/146
f 72/142/153 73/144/154 84/143/146
f 73/144/154 74/146/155 84/143/146
f 74/146/155 75/147/156 84/143/146
f 75/147/156 76/148/157 84/143/146
f 76/175/157 77/176/158 84/177/146
f 77/176/158 78/178/159 84/177/146
f 78/178/159 79/179/160 84/177/146
f 79/179/160 80/180/161 84/177/146
f 80/140/161 81/139/162 84/135/146
f 81/139/162 82/138/163 84/135/146
f 82/138/163 83/137/164 84/135/146
f 83/137/164 64/133/144 84/135/146
g default
v 2.000495 4.458042 -0.650000
v 1.701723 4.458042 -1.236374
v 1.236374 4.458042 -1.701722
v 0.650000 4.458042 -2.000495
v 0.000000 4.458042 -2.103444
v -0.650000 4.458042 -2.000494
v -1.236373 4.458042 -1.701722
v -1.701722 4.458042 -1.236373
v -2.000494 4.458042 -0.650000
v -2.103444 4.458042 0.000000
v -2.000494 4.458042 0.650000
v -1.701722 4.458042 1.236373
v -1.236373 4.458042 1.701722
v -0.650000 4.458042 2.000494
v -0.000000 4.458042 2.103444
v 0.650000 4.458042 2.000494
v 1.236373 4.458042 1.701722
v 1.701721 4.458042 1.236373
v 2.000494 4.458042 0.650000
v 2.103443 4.458042 0.000000
v 0.000000 8.664928 0.000000
vt 0.712178 0.001811
vt 0.775008 0.001811
vt 0.642531 0.452580
vt 0.824871 0.001811
vt 0.642531 0.001811
vt 0.572883 0.001811
vt 0.510053 0.001811
vt 0.460191 0.001811
vt 0.412100 0.456572
vt 0.474930 0.456572
vt 0.544577 0.907340
vt 0.544577 0.456572
vt 0.362237 0.456572
vt 0.614225 0.456572
vt 0.677055 0.456572
vt 0.726917 0.456572
vt 0.441730 0.157548
vt 0.452761 0.227196
vt 0.441730 0.296843
vt 0.409716 0.359673
vt 0.359854 0.409535
vt 0.297024 0.441549
vt 0.227377 0.452580
vt 0.157729 0.441549
vt 0.094899 0.409535
vt 0.045037 0.359673
vt 0.013023 0.296843
vt 0.001992 0.227196
vt 0.013023 0.157548
vt 0.045037 0.094718
vt 0.094899 0.044856
vt 0.157729 0.012842
vt 0.227377 0.001811
vt 0.297024 0.012842
vt 0.359854 0.044856
vt 0.409717 0.094718
vt 0.998008 0.907340
vt 0.935178 0.907340
vt 0.865530 0.456571
vt 0.865530 0.907340
vt 0.795883 0.907340
vt 0.733052 0.907340
vt 0.091147 0.456572
vt 0.153977 0.456572
vt 0.223624 0.907340
vt 0.223624 0.456572
vt 0.293272 0.456572
vt 0.356102 0.456572
vn 0.000000 -1.000000 -0.000000
vn 0.000000 -1.000000 -0.000000
vn 0.000000 -1.000000 -0.000000
vn 0.000000 -1.000000 -0.000000
vn 0.000000 -1.000000 -0.000000
vn 0.000000 -1.000000 -0.000000
vn 0.000000 -1.000000 -0.000000
vn 0.000000 -1.000000 -0.000000
vn 0.000000 -1.000000 -0.000000
vn 0.000000 -1.000000 -0.000000
vn 0.000000 -1.000000 -0.000000
vn 0.000000 -1.000000 -0.000000
vn 0.000000 -1.000000 -0.000000
vn 0.000000 -1.000000 -0.000000
vn 0.000000 -1.000000 -0.000000
vn 0.000000 -1.000000 -0.000000
vn 0.000000 -1.000000 -0.000000
vn 0.000000 -1.000000 -0.000000
vn 0.000000 -1.000000 -0.000000
vn 0.000000 -1.000000 -0.000000
vn 0.850651 0.447214 -0.276392
vn 0.723607 0.447214 -0.525731
vn -0.000000 1.000000 -0.000001
vn 0.525731 0.447214 -0.723607
vn 0.276393 0.447214 -0.850651
vn -0.000000 0.447214 -0.894427
vn -0.276393 0.447214 -0.850651
vn -0.525731 0.447214 -0.723607
vn -0.723607 0.447214 -0.525731
vn -0.850651 0.447214 -0.276393
vn -0.894427 0.447214 0.000000
vn -0.850651 0.447214 0.276393
vn -0.723607 0.447214 0.525731
vn -0.525731 0.447214 0.723607
vn -0.276393 0.447214 0.850651
vn 0.000000 0.447214 0.894427
vn 0.276393 0.447214 0.850651
vn 0.525731 0.447214 0.723607
vn 0.723607 0.447214 0.525731
vn 0.850651 0.447214 0.276393
vn 0.894427 0.447214 0.000001
s off
g pCone3
usemtl initialShadingGroup
f 85/197/165 104/198/166 103/199/167 102/200/168 101/201/169 100/202/170 99/203/171 98/204/172 97/205/173 96/206/174 95/207/175 94/208/176 93/209/177 92/210/178 91/211/179 90/212/180 89/213/181 88/214/182 87/215/183 86/216/184
s 1
f 85/181/185 86/182/186 105/183/187
f 86/182/186 87/184/188 105/183/187
f 87/217/188 88/218/189 105/219/187
f 88/218/189 89/220/190 105/219/187
f 89/220/190 90/221/191 105/219/187
f 90/221/191 91/222/192 105/219/187
f 91/193/192 92/189/193 105/191/187
f 92/189/193 93/190/194 105/191/187
f 93/190/194 94/192/195 105/191/187
f 94/192/195 95/194/196 105/191/187
f 95/194/196 96/195/197 105/191/187
f 96/195/197 97/196/198 105/191/187
f 97/223/198 98/224/199 105/225/187
f 98/224/199 99/226/200 105/225/187
f 99/226/200 100/227/201 105/225/187
f 100/227/201 101/228/202 105/225/187
f 101/188/202 102/187/203 105/183/187
f 102/187/203 103/186/204 105/183/187
f 103/186/204 104/185/205 105/183/187
f 104/185/205 85/181/185 105/183/187
